<svg xmlns="http://www.w3.org/2000/svg" width="71.72" height="71.723" viewBox="0 0 71.72 71.723">
  <g id="Group_63" data-name="Group 63" transform="translate(-226.809 -278.919)">
    <path id="Path_395" data-name="Path 395" d="M234.843,289.826a2.877,2.877,0,0,1,2.87-2.873h40.575l-8.41-8.034H237.714a10.918,10.918,0,0,0-10.9,10.907v37.623l8.034-8.582Z"/>
    <path id="Path_396" data-name="Path 396" d="M287.626,278.919h-11.1l7.91,7.558.462.438-21.579,22.724-9.968-4.593-18.506,19.772-8.034,8.586v6.331a10.946,10.946,0,0,0,10.9,10.907h49.913a10.919,10.919,0,0,0,10.9-10.907V306.291l-8.034-7.676v41.12a2.873,2.873,0,0,1-2.869,2.869H237.714a2.874,2.874,0,0,1-2.87-2.869V337.28l20.523-21.931,9.929,4.573L291.05,292.8l.507.486.372.355,6.6,6.3V278.919Z"/>
    <path id="Path_397" data-name="Path 397" d="M357.454,381.283V349.308L346.547,360.79v20.493Z" transform="translate(-73.452 -43.179)"/>
    <path id="Path_398" data-name="Path 398" d="M305.47,404.375h10.907V389.123l-1.886,1.983-9.02-4.155Z" transform="translate(-48.254 -66.271)"/>
    <path id="Path_399" data-name="Path 399" d="M275.294,410.662V397.2l-10.9,11.651v1.81Z" transform="translate(-23.053 -72.558)"/>
  </g>
</svg>
