<svg xmlns="http://www.w3.org/2000/svg" width="79.163" height="79.163" viewBox="0 0 79.163 79.163">
  <g id="Group_61" data-name="Group 61" transform="translate(-108.528 -19.759)">
    <path id="Path_386" data-name="Path 386" d="M178.731,56.577a1.65,1.65,0,0,0-1.649,1.649v8.247a1.65,1.65,0,0,0,1.649,1.649h8.247a1.649,1.649,0,0,0,0-3.3h-6.6V59.876h6.6a1.649,1.649,0,0,0,1.649-1.649V49.979a1.65,1.65,0,0,0-1.649-1.649h-8.247a1.65,1.65,0,0,0,0,3.3h6.6v4.948Z" transform="translate(-28.977 -12.077)"/>
    <path id="Path_387" data-name="Path 387" d="M207.3,48.33a1.65,1.65,0,0,0-1.649,1.649v8.247a1.649,1.649,0,0,0,1.649,1.649h6.6v6.6a1.65,1.65,0,0,0,3.3,0V49.979a1.65,1.65,0,0,0-3.3,0v6.6h-4.948v-6.6A1.65,1.65,0,0,0,207.3,48.33Z" transform="translate(-41.055 -12.077)"/>
    <path id="Path_388" data-name="Path 388" d="M207.331,64.294h-.694a29.684,29.684,0,0,0-43.162-38.857,1.649,1.649,0,0,0,1.943,2.666,26.38,26.38,0,0,1,38.615,34.1v-1.2a1.649,1.649,0,1,0-3.3,0v4.949a1.649,1.649,0,0,0,1.649,1.649h4.948a1.649,1.649,0,1,0,0-3.3Z" transform="translate(-22.939 0)"/>
    <path id="Path_389" data-name="Path 389" d="M173.194,68.228a5.06,5.06,0,0,0-7.11-.073l-2.575,2.265c-.014.013-.019.031-.033.044s-.031.016-.043.029a1.555,1.555,0,0,0-.15.225A1.631,1.631,0,0,0,163.1,71a1.6,1.6,0,0,0-.08.3,1.648,1.648,0,0,0-.06.311,5.1,5.1,0,0,0,.1.619,1.684,1.684,0,0,0,.159.277,1.618,1.618,0,0,0,.141.245c.013.014.031.019.044.033s.016.031.029.043l9.9,9.9a1.649,1.649,0,0,0,2.332-2.332l-8.654-8.654,1.332-1.175a1.826,1.826,0,0,1,2.522,0l9.71,9.71a1.785,1.785,0,0,1,0,2.522l-9.71,9.71a18.97,18.97,0,0,1-26.8,0l-26.7-26.7a18.971,18.971,0,0,1,0-26.8l6.2-6.2a1.623,1.623,0,0,0,.285.429l8.247,8.247a1.649,1.649,0,1,0,2.332-2.332l-8.247-8.247a1.6,1.6,0,0,0-.428-.285l1.326-1.325a1.786,1.786,0,0,1,2.522,0l9.71,9.709a1.785,1.785,0,0,1,0,2.522l-4.855,4.855a8.524,8.524,0,0,0,0,12.041l16.992,16.991a8.463,8.463,0,0,0,8.731,2.053,1.65,1.65,0,0,0-1.049-3.128,5.194,5.194,0,0,1-5.35-1.257L136.785,56.091a5.222,5.222,0,0,1,0-7.377l4.855-4.855a5.088,5.088,0,0,0,0-7.187l-9.71-9.71a5.089,5.089,0,0,0-7.186,0l-9.71,9.71a22.271,22.271,0,0,0,0,31.461l26.7,26.7a22.271,22.271,0,0,0,31.46,0l9.71-9.71a5.087,5.087,0,0,0,0-7.186Z" transform="translate(0 -2.417)"/>
  </g>
</svg>
